<svg width="24" height="21" viewBox="0 0 24 21" fill="none" xmlns="http://www.w3.org/2000/svg">
<path fill-rule="evenodd" clip-rule="evenodd" d="M12 0.00105004C5.3724 0.00105004 1.98688e-06 4.70184 1.98688e-06 10.5009C-0.00101537 12.0479 0.388675 13.5761 1.1412 14.976L0.0252019 19.7397C-0.0145313 19.9098 -0.00544351 20.0859 0.0516517 20.2522C0.108747 20.4184 0.212068 20.5697 0.352366 20.6925C0.492664 20.8152 0.665561 20.9056 0.85558 20.9556C1.0456 21.0055 1.24681 21.0135 1.4412 20.9787L6.8856 20.0022C8.4384 20.6427 10.1736 20.9997 12 20.9997C18.6276 20.9997 24 16.3 24 10.4999C24 4.70184 18.6276 0 12 0" fill="#51A993"/>
</svg>
