<svg width="28" height="20" viewBox="0 0 28 20" fill="none" xmlns="http://www.w3.org/2000/svg">
<path d="M22.9091 2.66667H12.7273V12H2.54545V0H0V20H2.54545V16H25.4545V20H28V8C28 6.58551 27.4636 5.22896 26.5089 4.22876C25.5542 3.22857 24.2593 2.66667 22.9091 2.66667ZM7.63636 10.6667C8.64901 10.6667 9.62018 10.2452 10.3362 9.4951C11.0523 8.74495 11.4545 7.72753 11.4545 6.66667C11.4545 5.6058 11.0523 4.58839 10.3362 3.83824C9.62018 3.08809 8.64901 2.66667 7.63636 2.66667C6.62372 2.66667 5.65255 3.08809 4.9365 3.83824C4.22045 4.58839 3.81818 5.6058 3.81818 6.66667C3.81818 7.72753 4.22045 8.74495 4.9365 9.4951C5.65255 10.2452 6.62372 10.6667 7.63636 10.6667Z" fill="#51A993"/>
</svg>
