<svg width="23" height="20" viewBox="0 0 23 20" fill="none" xmlns="http://www.w3.org/2000/svg">
<path d="M0 2.5C0 1.83696 0.299849 1.20107 0.833584 0.732233C1.36732 0.263392 2.09122 0 2.84603 0H14.8626C15.6174 0 16.3413 0.263392 16.8751 0.732233C17.4088 1.20107 17.7086 1.83696 17.7086 2.5V12.2222H22.7683V16.3889C22.7683 17.3466 22.3351 18.2651 21.5642 18.9423C20.7932 19.6195 19.7476 20 18.6573 20H4.11094C3.02065 20 1.97502 19.6195 1.20407 18.9423C0.433115 18.2651 0 17.3466 0 16.3889V2.5ZM17.7086 18.3333H18.6573C19.2444 18.3333 19.8074 18.1285 20.2226 17.7638C20.6377 17.3992 20.8709 16.9046 20.8709 16.3889V13.8889H17.7086V18.3333ZM2.84603 1.66667C2.59443 1.66667 2.35313 1.75446 2.17522 1.91074C1.9973 2.06702 1.89736 2.27899 1.89736 2.5V16.3889C1.89736 17.4622 2.88904 18.3333 4.11094 18.3333H15.8113V2.5C15.8113 2.27899 15.7113 2.06702 15.5334 1.91074C15.3555 1.75446 15.1142 1.66667 14.8626 1.66667H2.84603ZM5.37584 4.44444C5.12424 4.44444 4.88294 4.53224 4.70502 4.68852C4.52711 4.8448 4.42716 5.05676 4.42716 5.27778C4.42716 5.49879 4.52711 5.71075 4.70502 5.86703C4.88294 6.02331 5.12424 6.11111 5.37584 6.11111H12.3328C12.5844 6.11111 12.8257 6.02331 13.0036 5.86703C13.1815 5.71075 13.2815 5.49879 13.2815 5.27778C13.2815 5.05676 13.1815 4.8448 13.0036 4.68852C12.8257 4.53224 12.5844 4.44444 12.3328 4.44444H5.37584ZM4.42716 9.72222C4.42716 9.50121 4.52711 9.28925 4.70502 9.13297C4.88294 8.97669 5.12424 8.88889 5.37584 8.88889H12.3328C12.5844 8.88889 12.8257 8.97669 13.0036 9.13297C13.1815 9.28925 13.2815 9.50121 13.2815 9.72222C13.2815 9.94324 13.1815 10.1552 13.0036 10.3115C12.8257 10.4678 12.5844 10.5556 12.3328 10.5556H5.37584C5.12424 10.5556 4.88294 10.4678 4.70502 10.3115C4.52711 10.1552 4.42716 9.94324 4.42716 9.72222ZM5.37584 13.3333C5.12424 13.3333 4.88294 13.4211 4.70502 13.5774C4.52711 13.7337 4.42716 13.9457 4.42716 14.1667C4.42716 14.3877 4.52711 14.5996 4.70502 14.7559C4.88294 14.9122 5.12424 15 5.37584 15H9.17055C9.42216 15 9.66346 14.9122 9.84137 14.7559C10.0193 14.5996 10.1192 14.3877 10.1192 14.1667C10.1192 13.9457 10.0193 13.7337 9.84137 13.5774C9.66346 13.4211 9.42216 13.3333 9.17055 13.3333H5.37584Z" fill="#717171" fill-opacity="0.8"/>
</svg>
