<svg width="18" height="20" viewBox="0 0 18 20" fill="none" xmlns="http://www.w3.org/2000/svg">
<path d="M8.90932 10.3448C8.05669 10.3448 7.22321 10.0415 6.51428 9.47312C5.80534 8.90477 5.2528 8.09695 4.92651 7.15181C4.60022 6.20668 4.51485 5.16668 4.68119 4.16333C4.84753 3.15998 5.25811 2.23834 5.86101 1.51497C6.46391 0.791592 7.23205 0.298968 8.06829 0.0993888C8.90454 -0.10019 9.77133 0.00224113 10.5591 0.393729C11.3468 0.785217 12.0201 1.44818 12.4938 2.29878C12.9674 3.14938 13.2203 4.14941 13.2203 5.17241C13.2203 6.54422 12.7661 7.85985 11.9576 8.82986C11.1492 9.79988 10.0527 10.3448 8.90932 10.3448ZM8.90932 2.06897C8.39774 2.06897 7.89765 2.25098 7.47229 2.59199C7.04693 2.933 6.71541 3.4177 6.51963 3.98478C6.32386 4.55186 6.27264 5.17586 6.37244 5.77787C6.47225 6.37988 6.7186 6.93286 7.08033 7.36688C7.44207 7.80091 7.90296 8.09648 8.4047 8.21623C8.90645 8.33598 9.42652 8.27452 9.89916 8.03963C10.3718 7.80473 10.7758 7.40696 11.06 6.8966C11.3442 6.38624 11.4959 5.78622 11.4959 5.17241C11.4959 4.34933 11.2234 3.55996 10.7383 2.97795C10.2532 2.39594 9.59532 2.06897 8.90932 2.06897ZM16.9564 20C16.7287 19.9964 16.5111 19.8863 16.3501 19.6931C16.189 19.4998 16.0972 19.2388 16.0943 18.9655C16.0943 16.2759 14.8757 14.4828 8.90932 14.4828C2.94295 14.4828 1.72438 16.2759 1.72438 18.9655C1.72438 19.2399 1.63355 19.503 1.47185 19.697C1.31016 19.891 1.09086 20 0.862192 20C0.633525 20 0.414223 19.891 0.25253 19.697C0.0908377 19.503 0 19.2399 0 18.9655C0 12.4138 6.24227 12.4138 8.90932 12.4138C11.5764 12.4138 17.8186 12.4138 17.8186 18.9655C17.8157 19.2388 17.7239 19.4998 17.5628 19.6931C17.4018 19.8863 17.1842 19.9964 16.9564 20Z" fill="#717171"/>
</svg>
