<svg width="24" height="22" viewBox="0 0 24 22" fill="none" xmlns="http://www.w3.org/2000/svg">
<path d="M11.8892 21C14.0428 21 16.1481 20.4135 17.9389 19.3147C19.7296 18.2159 21.1253 16.6541 21.9494 14.8268C22.7736 12.9996 22.9893 10.9889 22.5691 9.0491C22.1489 7.10929 21.1118 5.32746 19.589 3.92894C18.0661 2.53041 16.1258 1.578 14.0135 1.19215C11.9012 0.8063 9.7118 1.00433 7.72206 1.76121C5.73233 2.51809 4.03167 3.79981 2.83516 5.4443C1.63864 7.08879 1 9.02219 1 11C1 12.6533 1.43557 14.2111 2.20991 15.5856L1 21L6.89588 19.8889C8.39132 20.5989 10.09 21 11.8892 21Z" stroke="#9E9E9E" stroke-width="1.5" stroke-linecap="round" stroke-linejoin="round"/>
<path d="M11.8892 21C14.0428 21 16.1481 20.4135 17.9389 19.3147C19.7296 18.2159 21.1253 16.6541 21.9494 14.8268C22.7736 12.9996 22.9893 10.9889 22.5691 9.0491C22.1489 7.10929 21.1118 5.32746 19.589 3.92894C18.0661 2.53041 16.1258 1.578 14.0135 1.19215C11.9012 0.8063 9.7118 1.00433 7.72206 1.76121C5.73233 2.51809 4.03167 3.79981 2.83516 5.4443C1.63864 7.08879 1 9.02219 1 11C1 12.6533 1.43557 14.2111 2.20991 15.5856L1 21L6.89588 19.8889C8.39132 20.5989 10.09 21 11.8892 21Z" stroke="#717171" stroke-width="1.5" stroke-linecap="round" stroke-linejoin="round"/>
</svg>
