<svg width="28" height="20" viewBox="0 0 28 20" fill="none" xmlns="http://www.w3.org/2000/svg">
<path d="M7.55942 10.6667C8.30698 10.6667 9.03775 10.4321 9.65932 9.99255C10.2809 9.55302 10.7653 8.9283 11.0514 8.1974C11.3375 7.4665 11.4123 6.66223 11.2665 5.88631C11.1207 5.11038 10.7607 4.39765 10.2321 3.83824C9.70348 3.27883 9.03 2.89787 8.29681 2.74353C7.56362 2.58918 6.80364 2.6684 6.11299 2.97115C5.42234 3.2739 4.83203 3.78659 4.41671 4.44439C4.00139 5.10218 3.77971 5.87554 3.77971 6.66667C3.77971 7.72753 4.17793 8.74495 4.88676 9.49509C5.5956 10.2452 6.55698 10.6667 7.55942 10.6667ZM7.55942 5.33333C7.80861 5.33333 8.0522 5.41153 8.25939 5.55804C8.46658 5.70455 8.62806 5.91279 8.72342 6.15642C8.81878 6.40006 8.84373 6.66815 8.79512 6.92679C8.7465 7.18543 8.62651 7.42301 8.45031 7.60948C8.27411 7.79595 8.04961 7.92293 7.80522 7.97438C7.56082 8.02583 7.3075 7.99942 7.07728 7.89851C6.84706 7.79759 6.65029 7.62669 6.51185 7.40743C6.37341 7.18816 6.29952 6.93038 6.29952 6.66667C6.29952 6.31305 6.43226 5.97391 6.66854 5.72386C6.90481 5.47381 7.22528 5.33333 7.55942 5.33333ZM23.9382 2.66667H13.8589C13.5248 2.66667 13.2043 2.80714 12.9681 3.05719C12.7318 3.30724 12.599 3.64638 12.599 4V12H2.51981V1.33333C2.51981 0.979711 2.38707 0.640573 2.15079 0.390525C1.91451 0.140476 1.59405 0 1.2599 0C0.925757 0 0.605295 0.140476 0.369017 0.390525C0.132739 0.640573 0 0.979711 0 1.33333V18.6667C0 19.0203 0.132739 19.3594 0.369017 19.6095C0.605295 19.8595 0.925757 20 1.2599 20C1.59405 20 1.91451 19.8595 2.15079 19.6095C2.38707 19.3594 2.51981 19.0203 2.51981 18.6667V14.6667H25.1981V18.6667C25.1981 19.0203 25.3308 19.3594 25.5671 19.6095C25.8034 19.8595 26.1238 20 26.458 20C26.7921 20 27.1126 19.8595 27.3489 19.6095C27.5851 19.3594 27.7179 19.0203 27.7179 18.6667V6.66667C27.7179 5.6058 27.3197 4.58839 26.6108 3.83824C25.902 3.08809 24.9406 2.66667 23.9382 2.66667ZM25.1981 12H15.1188V5.33333H23.9382C24.2723 5.33333 24.5928 5.47381 24.8291 5.72386C25.0653 5.97391 25.1981 6.31305 25.1981 6.66667V12Z" fill="#9E9E9E"/>
</svg>
